<svg id="Layer_1" data-name="Layer 1" xmlns="http://www.w3.org/2000/svg" viewBox="0 0 300 300"><defs><style>.cls-1{fill:#ff9700;}.cls-2{fill:#f7931e;}</style></defs><title>Artboard 1</title><polygon class="cls-1" points="285 153.52 241.61 110.14 178.13 173.62 114.64 110.14 114.06 110.72 113.48 110.14 6.28 217.33 49.67 260.72 114.06 196.33 134.74 217.01 134.42 217.33 177.81 260.72 178.13 260.4 178.45 260.72 221.84 217.33 221.51 217.01 285 153.52"/><polygon class="cls-2" points="75.54 137.62 63.77 143.22 61.71 156.08 52.76 146.62 39.88 148.63 46.11 137.19 40.22 125.57 53.03 127.96 62.26 118.77 63.94 131.69 75.54 137.62"/><polygon class="cls-2" points="72 127.2 72.18 114.18 61.56 106.64 74 102.79 77.89 90.35 85.39 101 98.42 100.85 90.62 111.28 94.78 123.63 82.45 119.43 72 127.2"/><polygon class="cls-2" points="124.82 108.06 113.34 101.89 101.76 107.86 104.07 95.04 94.82 85.86 107.73 84.1 113.59 72.47 119.26 84.2 132.14 86.18 122.73 95.2 124.82 108.06"/><polygon class="cls-2" points="159.98 121.44 149.37 119.5 141.75 127.14 140.31 116.44 130.69 111.56 140.42 106.89 142.09 96.23 149.54 104.04 160.2 102.34 155.07 111.83 159.98 121.44"/><polygon class="cls-2" points="196.66 121.26 190.82 134.83 198.68 147.33 183.97 145.97 174.51 157.31 171.26 142.9 157.55 137.41 170.25 129.87 171.24 115.13 182.34 124.87 196.66 121.26"/><polygon class="cls-2" points="241.66 107.76 219.69 111.23 210.1 131.3 200.01 111.48 177.97 108.56 193.7 92.84 189.66 70.97 209.47 81.07 229.03 70.48 225.54 92.44 241.66 107.76"/></svg>